name C:\Users\u0101727\Documents\MyRepositories\upper-imu-dc\Results\main_tracking\Case_53\kinematics_filtered.mot
datacolumns 10
datarows 37
range 0.70000000 1.06000000
endheader 
time	clav_prot	clav_elev	scapula_abduction	scapula_elevation	scapula_upward_rot	scapula_winging	plane_elv	shoulder_elv	axial_rot	
          0.70000000	        -19.11511264	         -4.51422324	         -7.53036584	         -4.59038301	         13.02194844	          5.59710430	        -26.25900382	         17.58697964	         46.16759830	
          0.71000000	        -19.77620332	         -4.59613079	         -8.35057500	         -4.55138516	         13.06449202	          5.56509009	        -26.07385339	         17.53583955	         46.02184310	
          0.72000000	        -20.37241726	         -4.66190554	         -9.08931748	         -4.50950797	         13.10467427	          5.53221335	        -25.88545688	         17.48219023	         45.87552882	
          0.73000000	        -20.86167768	         -4.70113159	         -9.69442997	         -4.46283223	         13.14018996	          5.49830324	        -25.69487115	         17.42456505	         45.73253964	
          0.74000000	        -21.22510771	         -4.70854838	        -10.14216371	         -4.40870540	         13.16810850	          5.46303924	        -25.50245086	         17.36101664	         45.59715082	
          0.75000000	        -21.46035256	         -4.68255362	        -10.42889492	         -4.34383855	         13.18498325	          5.42597674	        -25.30800507	         17.28922911	         45.47415647	
          0.76000000	        -21.57470753	         -4.62341456	        -10.56291898	         -4.26451449	         13.18724113	          5.38657030	        -25.11098238	         17.20661190	         45.36894842	
          0.77000000	        -21.58137022	         -4.53195292	        -10.56042795	         -4.16691372	         13.17188197	          5.34418581	        -24.91067530	         17.11036106	         45.28752263	
          0.78000000	        -21.49778728	         -4.40869397	        -10.44406316	         -4.04751791	         13.13737042	          5.29808993	        -24.70643166	         16.99749968	         45.23640102	
          0.79000000	        -21.34451710	         -4.25346852	        -10.24162482	         -3.90350031	         13.08443831	          5.24742382	        -24.49785338	         16.86492641	         45.22247125	
          0.80000000	        -21.14362127	         -4.06539065	         -9.98359339	         -3.73299338	         13.01647899	          5.19119371	        -24.28495710	         16.70950084	         45.25275817	
          0.81000000	        -20.91674182	         -3.84305898	         -9.70000666	         -3.53517236	         12.93938892	          5.12831054	        -24.06828683	         16.52817516	         45.33414559	
          0.82000000	        -20.68340459	         -3.58484500	         -9.41772689	         -3.31018014	         12.86096315	          5.05767481	        -23.84899092	         16.31815783	         45.47306672	
          0.83000000	        -20.45984251	         -3.28919343	         -9.15859158	         -3.05896811	         12.79007651	          4.97827760	        -23.62887613	         16.07708530	         45.67518037	
          0.84000000	        -20.25842738	         -2.95489514	         -8.93856529	         -2.78312053	         12.73585693	          4.88929387	        -23.41043816	         15.80318073	         45.94505265	
          0.85000000	        -20.08764377	         -2.58131314	         -8.76775946	         -2.48470254	         12.70697739	          4.79015445	        -23.19686143	         15.49538637	         46.28586662	
          0.86000000	        -19.95244093	         -2.16855677	         -8.65103559	         -2.16614880	         12.71112377	          4.68058956	        -22.99197924	         15.15346136	         46.69918104	
          0.87000000	        -19.85479754	         -1.71760443	         -8.58891579	         -1.83019389	         12.75464831	          4.56064232	        -22.80018662	         14.77803967	         47.18475544	
          0.88000000	        -19.79436787	         -1.23037711	         -8.57858960	         -1.47983643	         12.84239100	          4.43065407	        -22.62630125	         14.37064431	         47.74045366	
          0.89000000	        -19.76912009	         -0.70976515	         -8.61487944	         -1.11832486	         12.97763847	          4.29122591	        -22.47537180	         13.93365584	         48.36223192	
          0.90000000	        -19.77591362	         -0.15961062	         -8.69108963	         -0.74915213	         13.16218621	          4.14316245	        -22.35243862	         13.47023605	         49.04421176	
          0.91000000	        -19.81099007	          0.41535183	         -8.79970881	         -0.37604793	         13.39647180	          3.98740428	        -22.26225706	         12.98421014	         49.77883255	
          0.92000000	        -19.87037019	          1.00959218	         -8.93296477	         -0.00295979	         13.67975092	          3.82495646	        -22.20899905	         12.47991420	         50.55707375	
          0.93000000	        -19.95015887	          1.61691593	         -9.08324410	          0.36598263	         14.01029323	          3.65681977	        -22.19595201	         11.96201754	         51.36873301	
          0.94000000	        -20.04676330	          2.23062357	         -9.24339278	          0.72652356	         14.38557995	          3.48393103	        -22.22523652	         11.43533160	         52.20274332	
          0.95000000	        -20.15702887	          2.84369381	         -9.40691011	          1.07435903	         14.80248936	          3.30711776	        -22.29756320	         10.90461871	         53.04751020	
          0.96000000	        -20.27829411	          3.44898634	         -9.56804123	          1.40523743	         15.25746097	          3.12707054	        -22.41204709	         10.37441354	         53.89124909	
          0.97000000	        -20.40836350	          4.03946147	         -9.72176674	          1.71508338	         15.74663224	          2.94433503	        -22.56609343	          9.84886958	         54.72230330	
          0.98000000	        -20.54539604	          4.60841566	         -9.86368427	          2.00014532	         16.26594612	          2.75932329	        -22.75536369	          9.33163943	         55.52942576	
          0.99000000	        -20.68771057	          5.14973259	         -9.98977993	          2.25716633	         16.81123069	          2.57234227	        -22.97382532	          8.82579434	         56.30201234	
          1.00000000	        -20.83351755	          5.65814855	        -10.09609971	          2.48357559	         17.37825577	          2.38363570	        -23.21388403	          8.33378371	         57.03028054	
          1.01000000	        -20.98060217	          6.12952755	        -10.17835501	          2.67769372	         17.96277298	          2.19343443	        -23.46659331	          7.85743104	         57.70539396	
          1.02000000	        -21.12600701	          6.56113470	        -10.23153415	          2.83893837	         18.56054716	          2.00200974	        -23.72193214	          7.39796021	         58.31953871	
          1.03000000	        -21.26579393	          6.95188604	        -10.24964394	          2.96800739	         19.16738656	          1.80972368	        -23.96913927	          6.95604449	         58.86596149	
          1.04000000	        -21.39500474	          7.30253978	        -10.22577252	          3.06700452	         19.77917771	          1.61707116	        -24.19708931	          6.53187172	         59.33898099	
          1.05000000	        -21.50798595	          7.61577963	        -10.15274437	          3.13946111	         20.39192715	          1.42470882	        -24.39469373	          6.12522255	         59.73398349	
          1.06000000	        -21.59928792	          7.89613359	        -10.02472095	          3.19020033	         21.00180646	          1.23346695	        -24.55130815	          5.73556518	         60.04741119	
